<svg width="150" height="97" viewBox="0 0 150 97" fill="none" xmlns="http://www.w3.org/2000/svg">
<path d="M41.0247 5.16309C41.6225 2.15183 44.5573 0.229791 47.5286 0.838867L47.8157 0.90625L47.8323 0.910156L47.8499 0.914062C80.7486 7.06359 113.15 15.6994 145.202 26.2852L145.217 26.29L145.233 26.2939C148.341 27.1043 150.1 30.3913 149.048 33.4268L149.044 33.4365L149.041 33.4463C142.434 55.4921 135.797 75.4625 129.091 91.0381L129.083 91.0547L129.077 91.0723C128.11 93.8642 125.113 95.3951 122.284 94.542L122.277 94.54L122.269 94.5371L118.168 93.4395C97.8933 87.9827 78.1167 82.2586 58.9875 76.1914L60.844 72.3184L61.095 71.7949L60.5403 71.624L50.2395 68.4482L55.4055 55.9805L55.6223 55.4551L55.0745 55.3066L35.804 50.083L42.053 36.1592L42.342 35.5127L41.637 35.4561L34.3342 34.8662C36.2314 25.6264 38.5279 15.5975 41.0208 5.18262L41.0247 5.16309Z" fill="#FFC9C9" stroke="#DC2828"/>
<path d="M23.4213 53.4404C23.4583 53.9823 23.8603 54.4234 24.3861 54.5176L24.4926 54.5312L34.1537 55.3711C34.2608 55.3806 34.331 55.4819 34.3109 55.5811L34.2963 55.623L29.4349 65.6494C29.0478 66.4484 29.6501 67.3478 30.4984 67.3389L30.6703 67.3242L43.9916 65.2881C44.1071 65.2706 44.2017 65.3672 44.1927 65.4756L44.183 65.5225L41.2367 73.5469C40.9807 74.2442 41.4271 74.9873 42.1361 75.1104L42.2816 75.126L51.683 75.6016C51.8233 75.6086 51.8918 75.7632 51.8236 75.8701L51.7855 75.9131L46.2269 80.4688C45.756 80.855 45.6626 81.5308 45.9926 82.0273L46.0638 82.124L47.7836 84.2188L46.9926 84.0352H46.9935L46.9779 84.0312H46.9769C39.0281 81.4956 31.1923 78.8999 23.4808 76.2383L23.472 76.2344L23.4623 76.2314L23.2113 76.1494C20.6472 75.2414 19.1161 72.5807 19.6508 69.8867L19.6547 69.8662L19.6566 69.8457C20.3617 63.6019 21.5517 56.4005 23.0853 48.5176L23.4213 53.4404Z" fill="#FFC9C9" stroke="#DC2828"/>
<path d="M7.22583 54.6367C8.36474 54.0638 9.17332 54.2805 9.52466 54.6904C9.85506 55.0762 9.99856 55.8861 9.3313 57.0635L9.18677 57.3047C8.89158 57.7698 8.48947 58.3289 8.20435 58.8887C7.94754 59.3929 7.74866 59.9613 7.76392 60.584L7.78345 60.8535C7.82089 61.1532 7.93044 61.4616 8.03149 61.7344C8.13908 62.0248 8.24588 62.2957 8.32544 62.585C8.4595 63.0725 8.50051 63.5587 8.28149 64.0752L8.17114 64.2988C7.88945 64.7978 7.35354 65.1338 6.8313 65.1309L6.70239 65.124C6.1467 65.0678 5.6194 64.6748 5.14282 64.1279L4.92603 63.8652C4.45372 63.2597 4.40912 62.9478 4.40845 62.749C4.40825 62.6886 4.41259 62.6276 4.41919 62.5557C4.42516 62.4906 4.43567 62.398 4.44067 62.3115C4.44896 62.1682 4.44619 62.0059 4.40552 61.8242L4.35181 61.6357L4.28149 61.4746C4.09871 61.1166 3.78322 60.8967 3.47095 60.7686C3.20604 60.6599 2.91889 60.6053 2.65063 60.584L2.38989 60.5732C2.05889 60.5712 1.79903 60.5842 1.53735 60.5557C1.35185 60.5354 1.20846 60.4967 1.09497 60.4355L0.991455 60.3672C0.74823 60.1712 0.668278 59.9935 0.650635 59.8418C0.631413 59.6762 0.677498 59.4596 0.834229 59.1816C1.15485 58.6131 1.83757 57.9674 2.70337 57.3232C3.98721 56.3681 5.54164 55.5095 6.49927 55.0088L7.22583 54.6367Z" fill="#FFC9C9" stroke="#DC2828"/>
<path d="M16.4124 85.7832C16.8449 85.726 17.3275 85.9382 17.7053 86.3174L17.8606 86.4902C18.6584 87.4736 18.8804 88.5539 19.0198 89.7656C19.1475 90.876 19.2046 92.1489 19.6741 93.3867L19.7727 93.6338C19.9532 94.0563 20.1899 94.4789 20.3147 94.9551C20.4191 95.3536 20.4048 95.6549 20.2502 95.8877L20.176 95.9834C20.0509 96.1205 19.8648 96.2079 19.5959 96.25C19.3905 96.2821 19.1627 96.2836 18.9211 96.2715L18.675 96.2559C17.8729 96.194 17.1784 96.1191 16.6418 95.7891L16.5374 95.7197C16.2948 95.5479 16.105 95.3351 15.8176 95.0605C15.588 94.8412 15.3049 94.5955 14.9417 94.4414L14.7805 94.3809C14.3573 94.2438 13.9393 94.2694 13.5686 94.3467C13.3862 94.3847 13.2057 94.4382 13.0334 94.4951L12.5491 94.667C11.3946 95.0899 10.5083 95.0393 9.96899 94.7021C9.49453 94.4054 9.14687 93.792 9.21313 92.6934L9.23169 92.4668C9.3654 91.1995 10.273 90.0124 11.5286 88.9258C12.4618 88.1181 13.5339 87.4109 14.5012 86.8018L15.425 86.2256C15.7531 86.0209 16.0256 85.8664 16.2961 85.8037L16.4124 85.7832Z" fill="#FFC9C9" stroke="#DC2828"/>
</svg>
