<svg width="25" height="25" viewBox="0 0 25 25" fill="none" xmlns="http://www.w3.org/2000/svg">
<path fill-rule="evenodd" clip-rule="evenodd" d="M11.2233 0.378027L24.6805 0.382027C24.8614 0.38208 25.0092 0.530032 25.0092 0.711102L25.0054 13.407C25.0053 13.5879 24.8574 13.7357 24.6766 13.7357L19.5599 13.7342L19.5621 6.15489C19.5622 5.97406 19.4143 5.82611 19.2335 5.82606L10.8929 5.82358L10.8944 0.706908C10.8945 0.52608 11.0424 0.377974 11.2233 0.378027Z" fill="#21A0FC"/>
<path fill-rule="evenodd" clip-rule="evenodd" d="M5.77819 5.81943L10.9171 5.82096C10.9171 5.82096 19.5618 13.7315 19.5619 13.6514L19.5603 18.8485C19.5603 19.0293 19.4123 19.1771 19.2315 19.1771L14.1148 19.1756L14.1171 11.5963C14.1171 11.4155 13.9693 11.2675 13.7882 11.2675L5.4476 11.265L5.44912 6.14831C5.44917 5.96749 5.59712 5.81962 5.77795 5.81968L5.77819 5.81943Z" fill="#21A0FC"/>
<path fill-rule="evenodd" clip-rule="evenodd" d="M0.332639 11.2647L5.47183 11.2663C5.47183 11.2663 14.1165 19.1771 14.1166 19.0967L14.115 24.2938C14.115 24.4746 13.967 24.6225 13.7859 24.6224L8.66926 24.6209L8.67151 17.0416C8.67157 16.8608 8.5237 16.7128 8.34288 16.7128L0.00228793 16.7103L0.00380849 11.5936C0.00386222 11.4128 0.151811 11.2649 0.332639 11.265L0.332639 11.2647Z" fill="#21A0FC"/>
</svg>
