<svg width="117" height="137" viewBox="0 0 117 137" fill="none" xmlns="http://www.w3.org/2000/svg">
<g clip-path="url(#clip0_5355_151021)">
<g clip-path="url(#clip1_5355_151021)">
<g clip-path="url(#clip2_5355_151021)">
<g clip-path="url(#clip3_5355_151021)">
<path d="M56 83.7785C56 83.7785 61.1506 103.27 63.9923 111.713C66.7452 120.156 74.027 134.976 74.027 134.976C74.7375 136.863 77.0463 135.875 78.2008 134.168L84.7722 125.366L96.0502 128.33C99.6023 129.857 100.846 127.611 99.4247 124.647L84.861 73L56 83.7785Z" fill="#FFF0C2"/>
<path d="M71.9064 137C71.8174 137 71.8174 137 71.7285 137C71.3726 136.911 71.1057 136.733 70.9278 136.376C70.8388 136.287 64.9675 123.01 60.5195 109.732C58.7403 104.386 56.0714 95.5638 53.2247 83.3557C53.1357 82.9993 53.1358 82.8211 53.0468 82.732C52.8689 82.1973 53.2247 81.6626 53.6695 81.4844L82.8485 71.0585C83.1154 70.9694 83.4712 70.9694 83.7381 71.1476C84.005 71.3259 84.1829 71.5932 84.2719 71.8605C84.2719 72.0387 87.3855 89.4152 91.4776 101.445C95.5698 113.564 100.907 126.752 100.907 126.841C101.085 127.198 100.996 127.643 100.73 127.911C100.463 128.178 100.107 128.356 99.662 128.178L83.5602 123.723L72.6181 136.644C72.5291 136.822 72.2622 137 71.9064 137ZM55.3598 83.0884C58.1175 95.1183 60.7863 103.851 62.5655 109.019C66.124 119.624 70.572 130.228 72.2622 134.059L82.4926 121.94C82.7595 121.673 83.2043 121.495 83.5602 121.584L98.2386 125.683C96.6373 121.584 92.7231 111.515 89.5205 102.069C86.0511 91.7321 83.2043 77.5636 82.4926 73.3754L55.3598 83.0884Z" fill="#030000"/>
<path d="M67 83.6892C67 83.6892 62.3037 104.942 59.504 113.266C56.7042 121.591 49.7501 133.191 49.7501 133.191C47.131 136.733 44.7828 134.254 43.6991 132.66L36.0224 124.513L23.5591 128.055C22.4754 128.232 19.9466 128.055 21.4819 124.336L35.6612 72L67 83.6892Z" fill="#FFF0C2"/>
<path d="M48.0887 137C47.8219 137 47.4661 136.911 47.2882 136.644L36.4369 123.723L20.3378 128.178C19.982 128.267 19.5373 128.178 19.2704 127.911C19.0036 127.643 18.9147 127.198 19.0925 126.841C19.1815 126.752 24.4293 113.475 28.5208 101.445C32.6122 89.4152 35.7253 72.0387 35.7253 71.8605C35.8143 71.5932 35.9922 71.3259 36.259 71.1476C36.5258 70.9694 36.7927 70.9694 37.1484 71.0585L66.3225 81.4844C66.8562 81.6626 67.123 82.1973 66.9451 82.732C66.9451 82.8211 66.8562 82.9993 66.7672 83.3557C63.921 95.5638 61.2526 104.475 59.4737 109.732C55.0264 123.099 49.0671 136.287 49.0671 136.376C48.8892 136.733 48.6224 136.911 48.2666 137C48.1777 137 48.0887 137 48.0887 137ZM36.7037 121.495C36.9706 121.495 37.3263 121.584 37.5042 121.851L47.7329 133.97C49.4229 130.139 53.8702 119.624 57.428 108.93C59.2069 103.673 61.7863 94.94 64.6325 82.9993L37.5042 73.3754C36.7037 77.5636 33.9464 91.7321 30.4775 102.069C27.2755 111.515 23.3619 121.584 21.7609 125.683L36.4369 121.584C36.5258 121.584 36.6148 121.495 36.7037 121.495Z" fill="#030000"/>
<path d="M56.1046 22.8148C59.5759 25.1474 64.1153 25.2371 67.6756 22.9942C73.3721 19.4055 80.9378 21.9176 83.252 28.1977C84.6761 32.1452 88.2364 34.8367 92.5088 35.1059C99.2734 35.5545 103.813 42.014 101.855 48.4736C100.697 52.5108 101.944 56.8172 105.237 59.419C110.399 63.7254 110.221 71.6204 104.881 75.7473C101.588 78.3491 100.074 82.5658 101.054 86.603C102.656 93.0626 97.8492 99.4324 91.0846 99.7016C86.9013 99.881 83.1629 102.483 81.5608 106.341C79.0686 112.621 71.3249 114.953 65.8064 111.185C62.3351 108.853 57.7957 108.763 54.2354 111.006C48.5389 114.594 40.9732 112.082 38.659 105.713C37.2349 101.765 33.6746 99.0735 29.4912 98.8044C22.7266 98.4455 18.1873 91.8963 20.1454 85.4367C21.3025 81.3995 20.0564 77.0931 16.7631 74.4913C11.6007 70.1849 11.7787 62.2899 17.1192 58.163C20.4124 55.5612 21.9256 51.3445 20.9465 47.3073C19.2553 40.9374 24.0618 34.5676 30.8264 34.2984C35.0097 34.119 38.748 31.5172 40.3502 27.6594C42.8424 21.3793 50.4971 19.0467 56.1046 22.8148Z" fill="#FFC501"/>
<path d="M19.5412 53C19.4517 53 19.4517 53 19.3621 53C18.8248 52.9119 18.4666 52.3836 18.5562 51.8552C18.7353 50.6223 18.7353 49.2133 18.3771 47.9804C17.4815 44.6339 18.198 41.1994 20.3472 38.3814C22.4069 35.6514 25.6307 33.9782 29.1232 33.8901C32.8844 33.8021 36.1978 31.5124 37.541 28.0779C38.8843 24.9076 41.4813 22.4418 44.8842 21.4731C48.1976 20.5044 51.7797 21.0328 54.7349 22.9702C56.5259 24.2031 58.7647 24.7315 60.9139 24.5554C61.4512 24.4673 61.9885 24.9076 61.9885 25.436C62.0781 25.9644 61.6303 26.4928 61.093 26.4928C58.496 26.757 55.8095 26.0525 53.5707 24.5554C51.2424 22.9702 48.2872 22.5299 45.5111 23.3225C42.735 24.115 40.5858 26.1405 39.5112 28.7824C37.8097 32.9214 33.7799 35.7395 29.2128 35.9156C26.3471 36.0037 23.6606 37.3246 21.9591 39.6143C20.2576 41.9039 19.6308 44.722 20.3472 47.452C20.7054 48.9491 20.7949 50.6223 20.5263 52.1194C20.5263 52.6477 20.0785 53 19.5412 53Z" fill="#030000"/>
<path d="M70.2041 114C67.9723 114 65.6513 113.293 63.7765 112.055C60.652 109.933 56.6348 109.934 53.5103 111.878C50.5643 113.735 46.9934 114.177 43.6903 113.028C40.3873 111.878 37.7984 109.403 36.6378 106.132C35.388 102.685 32.1742 100.209 28.4248 100.032C24.9432 99.7673 21.8187 98.0876 19.7654 95.2587C17.8014 92.4299 17.1765 88.8938 18.1585 85.6229C19.2298 82.0868 17.98 78.1971 15.1233 75.8986C12.088 73.4234 10.5704 69.6221 11.106 65.8208C11.4631 62.8151 12.9807 60.0746 15.4804 58.2182C15.9267 57.8646 16.5516 57.953 16.9087 58.395C17.2658 58.837 17.1765 59.4558 16.7302 59.8094C14.7662 61.3123 13.4271 63.5223 13.1593 66.086C12.8022 69.2685 14.052 72.3625 16.4623 74.3958C19.944 77.3131 21.3723 81.91 20.1225 86.2417C19.3191 88.9822 19.7654 91.811 21.4616 94.1979C23.0685 96.4964 25.6574 97.9992 28.5141 98.176C33.0669 98.4412 36.9949 101.447 38.5125 105.69C39.4945 108.342 41.6371 110.376 44.3152 111.348C46.9934 112.232 49.9394 111.967 52.3497 110.376C56.1884 107.989 61.0984 108.077 64.9371 110.552C67.1689 112.055 70.0256 112.586 72.7037 111.878C73.2394 111.702 73.775 112.055 73.9536 112.586C74.1321 113.116 73.775 113.646 73.2394 113.823C72.1681 113.912 71.1861 114 70.2041 114Z" fill="#030000"/>
<path d="M80.0882 108C79.9996 108 79.8224 108 79.7338 107.91C79.2022 107.731 78.9364 107.104 79.2022 106.566C80.8856 102.355 84.8725 99.4883 89.3909 99.3091C92.226 99.2195 94.8839 97.8755 96.5673 95.546C98.2506 93.2164 98.8708 90.3493 98.162 87.5718C97.0103 83.1816 98.605 78.4329 102.237 75.6554C104.452 73.8634 105.781 71.2651 105.87 68.398C105.959 65.5309 104.718 62.843 102.503 60.9614C99.048 58.0047 97.6304 53.3457 98.8708 48.9554C99.6682 46.1779 99.2252 43.3108 97.5418 40.8917C95.9471 38.5621 93.3778 37.039 90.5427 36.8598C86.0242 36.591 82.1259 33.5447 80.6198 29.244C79.1136 24.8538 74.6838 22.345 70.1653 23.1514C69.6338 23.241 69.1022 22.8826 69.0136 22.345C68.925 21.8075 69.2794 21.2699 69.8109 21.1803C75.304 20.1947 80.6198 23.3306 82.5689 28.6169C83.8093 32.1111 86.9988 34.6199 90.7199 34.7991C94.1751 35.0679 97.276 36.7702 99.3138 39.6373C101.263 42.5044 101.883 46.0883 100.909 49.4034C99.8454 52.9873 101.086 56.9296 103.921 59.2591C106.579 61.499 108.085 64.8141 107.996 68.3084C107.908 71.8027 106.313 75.0282 103.566 77.1785C100.643 79.5081 99.3138 83.2712 100.2 86.9446C101.086 90.3493 100.377 93.8436 98.2506 96.7107C96.2129 99.4883 93.0234 101.191 89.5681 101.28C85.847 101.37 82.5689 103.699 81.24 107.194C80.8856 107.731 80.5312 108 80.0882 108Z" fill="#030000"/>
<path d="M61.5143 95C60.8081 95 60.1018 95 59.3956 94.9116C52.1567 94.293 46.2419 92.1718 41.9162 88.4599C41.4748 88.1064 41.4748 87.4877 41.828 87.0458C42.1811 86.6039 42.799 86.6039 43.2404 86.9575C47.3013 90.4043 52.7746 92.3486 59.6604 92.8789C66.458 93.4092 72.9907 91.1997 77.9343 86.5156C83.1428 81.6547 86.1443 74.7611 86.0561 67.5139C85.8795 49.4845 72.1962 43.0327 59.4839 43.0327C45.5357 43.0327 35.0304 53.6383 35.0304 67.6907C35.0304 72.2864 36.5312 78.1195 38.7382 81.8314C39.003 82.2733 38.8265 82.9804 38.3851 83.2455C37.9437 83.5106 37.2374 83.3339 36.9726 82.892C34.589 78.8265 33 72.7283 33 67.6907C33 52.4894 44.3881 41 59.4839 41C67.4291 41 74.2266 43.2095 79.2585 47.275C84.9084 51.9591 87.9099 58.8527 87.9982 67.4255C88.0865 75.2029 84.9084 82.6268 79.2585 87.9296C74.3149 92.5254 68.1353 95 61.5143 95Z" fill="#030000"/>
<path d="M48.8791 130C48.5244 130 48.1696 129.827 47.9922 129.481C46.3071 126.712 43.5578 123.424 41.2519 120.396C40.365 119.271 39.4781 118.146 38.6799 117.108L25.2878 121.174C24.7557 121.348 24.1348 121.001 24.0461 120.482C23.8688 119.963 24.2235 119.444 24.7557 119.271L38.7686 115.031C39.212 114.945 39.6554 115.031 39.9215 115.377C40.8084 116.502 41.8727 117.8 42.9369 119.184C45.3316 122.213 48.0809 125.587 49.8547 128.443C50.1208 128.875 50.0321 129.481 49.5 129.827C49.2339 130 49.0565 130 48.8791 130Z" fill="#030000"/>
<path d="M72.0537 130C71.8734 130 71.6029 129.911 71.4226 129.823C70.9718 129.468 70.8817 128.847 71.1521 128.403L79.897 116.425C80.1675 116.07 80.6183 115.892 81.069 116.07C82.4213 116.425 83.7736 116.779 85.1259 117.134C88.4616 118.022 91.9776 118.909 95.3133 120.24C95.8542 120.417 96.1247 121.038 95.9444 121.571C95.7641 122.103 95.133 122.369 94.5921 122.192C91.3465 120.95 87.9207 120.062 84.6752 119.175C83.5032 118.909 82.4213 118.554 81.2493 118.288L72.9552 129.645C72.6847 129.823 72.4143 130 72.0537 130Z" fill="#030000"/>
<path d="M78.5754 61C77.5415 61 76.5939 60.3715 76.1631 59.3838C74.3539 54.984 69.0123 51.5719 63.4985 51.3923C62.0338 51.3025 61 50.0455 61 48.6088C61.0862 47.0823 62.2062 45.9151 63.6708 46.0049C71.1662 46.2742 78.2308 50.9434 80.8154 57.3186C81.3323 58.6654 80.7292 60.2817 79.4369 60.8204C79.2646 61 78.92 61 78.5754 61Z" fill="#FCF5C3"/>
<path d="M55.4471 90C55.2703 90 55.0051 90 54.8283 89.9097C48.4641 88.3738 40.8623 82.6823 38.1222 73.4675C37.6802 72.022 38.4757 70.4862 39.89 70.1249C41.3043 69.6732 42.807 70.4862 43.1605 71.9317C45.2819 79.0687 51.2926 83.4954 55.9774 84.6698C57.3917 85.0312 58.2756 86.4767 57.922 87.9221C57.7453 89.0966 56.6845 90 55.4471 90Z" fill="#FCF5C3"/>
<path d="M81 70C79.3 70 78 68.9737 78 67.6316V66.3684C78 65.0263 79.3 64 81 64C82.7 64 84 65.0263 84 66.3684V67.6316C84 68.8947 82.6 70 81 70Z" fill="#FCF5C3"/>
<path d="M30.0983 49.4901C30.372 50.295 30.9194 50.6528 31.5579 51.0106C32.5614 51.7261 33.6561 51.4578 34.7508 52.531C35.4806 54.141 35.8455 55.2143 37.2138 56.5559C38.0349 57.3609 39.4945 57.2714 40.4067 54.5882C41.0453 52.7994 42.2312 51.7261 43.782 50.8317C43.9644 50.7422 44.7855 50.1161 45.1504 50.1161C45.6065 49.9373 45.8802 49.4901 45.8802 49.1323C46.0626 48.6851 46.0626 47.9695 45.6977 47.5223C45.2416 46.7174 43.4171 46.2702 42.7785 45.7335C41.9575 45.1074 41.3189 44.213 40.8628 43.3186C40.0418 41.977 39.312 39.4726 37.0314 40.0987C35.3894 40.6354 34.842 44.5708 33.0175 45.6441C32.1053 46.7174 29.4598 47.5223 30.0983 49.4901Z" fill="#FCF5C3"/>
<path d="M1.21753 94.0459C1.59368 94.4853 1.96984 94.5731 2.44003 94.661C3.19234 94.8368 3.75657 95.1004 4.3208 95.5398C5.07311 96.3308 5.44926 97.3853 6.48368 97.9126C7.14195 98.1763 7.9883 97.9126 7.9883 96.155C7.9883 95.0125 8.55253 93.958 9.30484 93.0792C9.39888 92.9913 9.49292 92.8155 9.77503 92.6398C9.96311 92.464 10.0571 92.1125 9.96311 91.9367C9.96311 91.6731 9.86907 91.2337 9.49292 91.0579C9.02272 90.6185 8.36445 90.6185 7.89426 90.4427C7.23599 90.267 6.67176 89.8276 6.29561 89.3882C5.5433 88.773 4.50888 87.4548 3.38041 88.2457C2.53407 88.8609 2.72214 90.267 2.25195 91.1458C1.8758 92.1125 0.46522 93.0792 1.21753 94.0459Z" fill="#F8CD3D"/>
<path d="M5.63636 101C5.09091 101 4.63636 100.555 4.63636 100.02C4.63636 100.02 4.45454 97.882 3 96.1894C2.36364 95.5658 1.09091 94.9422 0.636363 94.675C0.272726 94.4968 0 94.0514 0 93.695C0 93.2496 0.363636 92.8933 0.818181 92.8042C2.81818 92.2697 4.54545 90.0425 4.54545 87.9936C4.54545 87.4591 4.90909 87.0136 5.45454 87.0136C6 86.9246 6.45455 87.2809 6.63636 87.8154V87.9045C6.90909 89.0626 7.18182 90.2207 7.81818 91.0225C8.54545 92.0024 9.27273 92.626 10.2727 92.8933C10.7273 92.9823 11 93.4278 11 93.8732C11 94.3186 10.7273 94.675 10.2727 94.8531C9.54545 95.1204 8.90909 95.5658 8.27273 96.2785C7.36364 97.2584 6.81818 99.3965 6.63636 100.198C6.63636 100.644 6.18182 101 5.63636 101ZM3.27273 93.8732C3.72727 94.1405 4.09091 94.4968 4.45455 94.8531C4.90909 95.3876 5.27273 96.0112 5.63636 96.5457C5.90909 95.9222 6.27273 95.2986 6.72727 94.8531C7 94.5859 7.36363 94.2295 7.72727 93.9623C7.09091 93.5169 6.54545 92.8933 6 92.2697C5.81818 92.0024 5.63636 91.7352 5.54545 91.4679C5 92.4478 4.18182 93.2496 3.27273 93.8732Z" fill="#030000"/>
<path d="M81.2175 7.04585C81.5937 7.48526 81.9698 7.57314 82.44 7.66102C83.1923 7.83679 83.7566 8.10043 84.3208 8.53983C85.0731 9.33076 85.4493 10.3853 86.4837 10.9126C87.142 11.1763 87.9883 10.9126 87.9883 9.155C87.9883 8.01255 88.5525 6.95797 89.3048 6.07916C89.3989 5.99128 89.4929 5.81552 89.775 5.63976C89.9631 5.464 90.0571 5.11248 89.9631 4.93672C89.9631 4.67307 89.8691 4.23367 89.4929 4.05791C89.0227 3.6185 88.3645 3.6185 87.8943 3.44273C87.236 3.26697 86.6718 2.82757 86.2956 2.38817C85.5433 1.773 84.5089 0.454781 83.3804 1.24571C82.5341 1.86088 82.7221 3.26697 82.252 4.14578C81.8758 5.11248 80.4652 6.07916 81.2175 7.04585Z" fill="#F8CD3D"/>
<path d="M86.124 14C85.6281 14 85.2149 13.5546 85.2149 13.0201C85.2149 13.0201 85.0496 10.882 83.7273 9.18941C83.1488 8.56581 81.9917 7.94221 81.5785 7.67496C81.2479 7.49679 81 7.05136 81 6.69502C81 6.2496 81.3306 5.89326 81.7438 5.80417C83.562 5.26966 85.1322 3.04253 85.1322 0.993577C85.1322 0.459067 85.4628 0.0136428 85.9587 0.0136428C86.4545 -0.0754423 86.8678 0.280899 87.0331 0.81541V0.904493C87.281 2.0626 87.5289 3.2207 88.1074 4.02247C88.7686 5.00241 89.4298 5.626 90.3388 5.89325C90.7521 5.98234 91 6.42777 91 6.8732C91 7.31862 90.7521 7.67496 90.3388 7.85313C89.6777 8.12039 89.0992 8.56581 88.5207 9.27849C87.6942 10.2584 87.1983 12.3965 87.0331 13.1982C87.0331 13.6437 86.6198 14 86.124 14ZM83.9752 6.8732C84.3884 7.14045 84.719 7.49679 85.0496 7.85313C85.4628 8.38764 85.7934 9.01124 86.124 9.54575C86.3719 8.92215 86.7025 8.29856 87.1157 7.85313C87.3636 7.58588 87.6942 7.22953 88.0248 6.96228C87.4463 6.51685 86.9504 5.89326 86.4545 5.26966C86.2893 5.00241 86.124 4.73515 86.0413 4.4679C85.5455 5.44783 84.8017 6.2496 83.9752 6.8732Z" fill="#030000"/>
<path d="M116.83 27.5655C116.473 26.8656 115.759 26.4282 115.045 26.1657C113.884 25.5533 112.903 25.0284 112.278 23.9785C111.385 22.2288 111.207 20.5665 109.6 19.3417C108.529 18.6418 107.012 18.8168 106.209 21.7914C105.584 23.7161 104.334 25.2909 102.639 26.5157C102.282 26.6906 102.014 26.9531 101.746 27.1281C101.211 27.3905 101.032 27.828 101.032 28.3529C100.943 28.9653 101.032 29.5777 101.389 30.1026C102.014 30.89 103.174 31.1525 103.888 31.5899C104.781 32.2023 105.584 32.9897 106.298 33.9521C107.369 35.2644 108.44 37.8015 110.761 36.7517C112.635 35.9643 112.724 33.5146 113.884 32.2023C114.866 30.5401 117.722 29.6652 116.83 27.5655Z" fill="#F8CD3D"/>
<path d="M108.866 38C108.419 38 107.972 37.6443 107.883 37.1997C107.346 34.9765 106.81 33.287 105.827 31.7752C104.754 30.0856 103.413 29.0185 101.804 28.5739C101.358 28.485 101.089 28.1293 101 27.6847C101 27.24 101.268 26.7954 101.626 26.7065C102.966 26.1729 104.039 25.4615 105.022 24.3055C106.899 22.2602 107.793 17.8139 107.793 17.8139C107.883 17.2804 108.33 16.9247 108.866 17.0136C109.402 17.0136 109.76 17.4582 109.849 17.9918C109.849 17.9918 110.117 21.6377 112.531 24.4833C113.514 25.6394 115.659 26.7954 116.374 27.0622C116.821 27.24 117 27.6847 117 28.1293C117 28.5739 116.642 28.9296 116.196 29.0185C112.799 29.7299 109.849 33.4648 109.849 37.0218C109.849 37.5554 109.492 38 108.955 38C108.955 38 108.955 38 108.866 38ZM107.615 30.7081C108.061 31.4195 108.508 32.2199 108.777 33.0202C109.76 30.797 111.458 28.9296 113.514 27.7736C112.62 27.24 111.637 26.5286 110.922 25.7283C109.849 24.4833 109.223 23.1495 108.687 21.9934C108.151 23.3273 107.436 24.7501 106.542 25.7283C105.827 26.5286 105.112 27.1511 104.307 27.5957C105.648 28.3071 106.721 29.3742 107.615 30.7081Z" fill="#030000"/>
<path d="M47.9649 72.9648V72.3438C48.1524 72.3203 48.3829 72.2812 48.6563 72.2266C48.9376 72.1719 49.1563 72.1328 49.3126 72.1094C49.336 71.5469 49.3477 70.9805 49.3477 70.4102C49.3477 70.0508 49.3438 69.5117 49.336 68.793C49.3282 68.0664 49.3243 67.5195 49.3243 67.1523C49.3243 66.2852 49.336 65.6289 49.3594 65.1836C48.6485 65.5898 48.129 65.918 47.8008 66.168L47.4258 65.7812C47.5508 65.6797 47.7657 65.5039 48.0704 65.2539C48.3751 64.9961 48.6485 64.7656 48.8907 64.5625C49.1329 64.3516 49.3204 64.1797 49.4532 64.0469C49.5782 64.0625 49.7071 64.0742 49.8399 64.082C49.9727 64.082 50.1016 64.0898 50.2266 64.1055C50.2735 65.0117 50.2969 66.6719 50.2969 69.0859C50.2969 70.5234 50.3086 71.5547 50.3321 72.1797C50.4024 72.1875 50.5704 72.2188 50.836 72.2734C51.1094 72.3203 51.3204 72.3516 51.4688 72.3672L51.6563 72.9883C51.2657 72.9883 50.9258 72.9883 50.6368 72.9883C50.3477 72.9883 49.961 72.9883 49.4766 72.9883C49.0001 72.9883 48.6251 72.9883 48.3516 72.9883C48.086 72.9805 47.9571 72.9727 47.9649 72.9648Z" fill="#292929"/>
<path d="M53.0977 69.0977C53.1055 67.4102 53.3242 66.1953 53.7539 65.4531C54.1836 64.7031 54.836 64.3047 55.711 64.2578C56.0938 64.2578 56.4336 64.3633 56.7305 64.5742C57.0274 64.7852 57.2617 65.0547 57.4336 65.3828C57.6133 65.7031 57.7617 66.0898 57.8789 66.543C57.9961 66.9883 58.0742 67.4141 58.1133 67.8203C58.1602 68.2188 58.1914 68.6445 58.207 69.0977C58.207 69.7148 58.1133 70.3477 57.9258 70.9961C57.7461 71.6367 57.4649 72.1992 57.082 72.6836C56.707 73.1602 56.2852 73.3984 55.8164 73.3984C54.0039 73.3984 53.0977 71.9648 53.0977 69.0977ZM55.5469 65.1602C55.3594 65.1992 55.1914 65.2617 55.043 65.3477C54.8945 65.4336 54.7695 65.5312 54.668 65.6406C54.5742 65.75 54.4922 65.8945 54.4219 66.0742C54.3516 66.2539 54.2969 66.4219 54.2578 66.5781C54.2266 66.7266 54.1953 66.9219 54.1641 67.1641C54.1406 67.4062 54.125 67.6172 54.1172 67.7969C54.1094 67.9688 54.0977 68.1992 54.082 68.4883C54.0742 68.7695 54.0625 69 54.0469 69.1797C54.0469 69.5391 54.0664 69.8828 54.1055 70.2109C54.1445 70.5312 54.2149 70.8672 54.3164 71.2188C54.4258 71.5703 54.5938 71.8555 54.8203 72.0742C55.0469 72.293 55.3203 72.418 55.6406 72.4492C56.125 72.4492 56.5235 72.1133 56.836 71.4414C57.1563 70.7695 57.3164 70.0898 57.3164 69.4023C57.3164 66.6055 56.7266 65.1914 55.5469 65.1602Z" fill="#292929"/>
<path d="M60.125 69.0977C60.1328 67.4102 60.3515 66.1953 60.7812 65.4531C61.2109 64.7031 61.8633 64.3047 62.7383 64.2578C63.1211 64.2578 63.4609 64.3633 63.7578 64.5742C64.0547 64.7852 64.289 65.0547 64.4609 65.3828C64.6406 65.7031 64.789 66.0898 64.9062 66.543C65.0234 66.9883 65.1015 67.4141 65.1406 67.8203C65.1875 68.2188 65.2187 68.6445 65.2344 69.0977C65.2344 69.7148 65.1406 70.3477 64.9531 70.9961C64.7734 71.6367 64.4922 72.1992 64.1094 72.6836C63.7344 73.1602 63.3125 73.3984 62.8437 73.3984C61.0312 73.3984 60.125 71.9648 60.125 69.0977ZM62.5742 65.1602C62.3867 65.1992 62.2187 65.2617 62.0703 65.3477C61.9219 65.4336 61.7969 65.5312 61.6953 65.6406C61.6015 65.75 61.5195 65.8945 61.4492 66.0742C61.3789 66.2539 61.3242 66.4219 61.2851 66.5781C61.2539 66.7266 61.2226 66.9219 61.1914 67.1641C61.168 67.4062 61.1523 67.6172 61.1445 67.7969C61.1367 67.9688 61.125 68.1992 61.1094 68.4883C61.1015 68.7695 61.0898 69 61.0742 69.1797C61.0742 69.5391 61.0937 69.8828 61.1328 70.2109C61.1719 70.5312 61.2422 70.8672 61.3437 71.2188C61.4531 71.5703 61.6211 71.8555 61.8476 72.0742C62.0742 72.293 62.3476 72.418 62.668 72.4492C63.1523 72.4492 63.5508 72.1133 63.8633 71.4414C64.1836 70.7695 64.3437 70.0898 64.3437 69.4023C64.3437 66.6055 63.7539 65.1914 62.5742 65.1602Z" fill="#292929"/>
<path d="M73.0625 63.9414L73.6836 64.3633C73.5274 64.7148 72.6797 66.1211 71.1407 68.582C69.6094 71.0352 68.7461 72.5 68.5508 72.9766C68.4414 73.1094 68.3047 73.1758 68.1407 73.1758C67.9844 73.1758 67.8477 73.1172 67.7305 73C67.6211 72.875 67.5664 72.7305 67.5664 72.5664C67.5664 72.4805 67.5899 72.3906 67.6368 72.2969C68.0118 71.8281 68.8789 70.5547 70.2383 68.4766C71.6055 66.3984 72.5469 64.8867 73.0625 63.9414ZM70.8125 71.418C70.8125 70.918 71.0118 70.457 71.4102 70.0352C71.8086 69.6055 72.2618 69.3906 72.7696 69.3906C73.2305 69.3906 73.6485 69.5859 74.0235 69.9766C74.3985 70.3594 74.586 70.793 74.586 71.2773C74.586 71.8086 74.4141 72.2773 74.0704 72.6836C73.7266 73.0898 73.293 73.293 72.7696 73.293C72.2618 73.293 71.8086 73.1172 71.4102 72.7656C71.0118 72.4062 70.8125 71.957 70.8125 71.418ZM72.7579 70.1523C72.4532 70.1523 72.1719 70.2773 71.9141 70.5273C71.6641 70.7773 71.5391 71.0586 71.5391 71.3711C71.5391 71.6836 71.6602 71.9492 71.9024 72.168C72.1446 72.3867 72.4297 72.4961 72.7579 72.4961C73.0704 72.4961 73.336 72.3789 73.5547 72.1445C73.7813 71.9102 73.8946 71.625 73.8946 71.2891C73.8946 71 73.7774 70.7383 73.543 70.5039C73.3164 70.2695 73.0547 70.1523 72.7579 70.1523ZM66.6758 65.6875C66.6758 65.1875 66.875 64.7266 67.2735 64.3047C67.6719 63.875 68.125 63.6602 68.6329 63.6602C69.0938 63.6602 69.5118 63.8555 69.8868 64.2461C70.2618 64.6289 70.4493 65.0625 70.4493 65.5469C70.4493 66.0781 70.2774 66.5469 69.9336 66.9531C69.5899 67.3594 69.1563 67.5625 68.6329 67.5625C68.125 67.5625 67.6719 67.3867 67.2735 67.0352C66.875 66.6758 66.6758 66.2266 66.6758 65.6875ZM68.6211 64.4336C68.3164 64.4336 68.0352 64.5586 67.7774 64.8086C67.5196 65.0508 67.3907 65.3281 67.3907 65.6406C67.3907 65.9531 67.5118 66.2227 67.7539 66.4492C68.0039 66.668 68.293 66.7773 68.6211 66.7773C68.9336 66.7773 69.1993 66.6602 69.418 66.4258C69.6446 66.1836 69.7579 65.8945 69.7579 65.5586C69.7579 65.2773 69.6407 65.0195 69.4063 64.7852C69.1797 64.5508 68.918 64.4336 68.6211 64.4336Z" fill="#292929"/>
<path d="M47.9649 72.9648V72.3438C48.1524 72.3203 48.3829 72.2812 48.6563 72.2266C48.9376 72.1719 49.1563 72.1328 49.3126 72.1094C49.336 71.5469 49.3477 70.9805 49.3477 70.4102C49.3477 70.0508 49.3438 69.5117 49.336 68.793C49.3282 68.0664 49.3243 67.5195 49.3243 67.1523C49.3243 66.2852 49.336 65.6289 49.3594 65.1836C48.6485 65.5898 48.129 65.918 47.8008 66.168L47.4258 65.7812C47.5508 65.6797 47.7657 65.5039 48.0704 65.2539C48.3751 64.9961 48.6485 64.7656 48.8907 64.5625C49.1329 64.3516 49.3204 64.1797 49.4532 64.0469C49.5782 64.0625 49.7071 64.0742 49.8399 64.082C49.9727 64.082 50.1016 64.0898 50.2266 64.1055C50.2735 65.0117 50.2969 66.6719 50.2969 69.0859C50.2969 70.5234 50.3086 71.5547 50.3321 72.1797C50.4024 72.1875 50.5704 72.2188 50.836 72.2734C51.1094 72.3203 51.3204 72.3516 51.4688 72.3672L51.6563 72.9883C51.2657 72.9883 50.9258 72.9883 50.6368 72.9883C50.3477 72.9883 49.961 72.9883 49.4766 72.9883C49.0001 72.9883 48.6251 72.9883 48.3516 72.9883C48.086 72.9805 47.9571 72.9727 47.9649 72.9648Z" stroke="#292929"/>
<path d="M53.0977 69.0977C53.1055 67.4102 53.3242 66.1953 53.7539 65.4531C54.1836 64.7031 54.836 64.3047 55.711 64.2578C56.0938 64.2578 56.4336 64.3633 56.7305 64.5742C57.0274 64.7852 57.2617 65.0547 57.4336 65.3828C57.6133 65.7031 57.7617 66.0898 57.8789 66.543C57.9961 66.9883 58.0742 67.4141 58.1133 67.8203C58.1602 68.2188 58.1914 68.6445 58.207 69.0977C58.207 69.7148 58.1133 70.3477 57.9258 70.9961C57.7461 71.6367 57.4649 72.1992 57.082 72.6836C56.707 73.1602 56.2852 73.3984 55.8164 73.3984C54.0039 73.3984 53.0977 71.9648 53.0977 69.0977ZM55.5469 65.1602C55.3594 65.1992 55.1914 65.2617 55.043 65.3477C54.8945 65.4336 54.7695 65.5312 54.668 65.6406C54.5742 65.75 54.4922 65.8945 54.4219 66.0742C54.3516 66.2539 54.2969 66.4219 54.2578 66.5781C54.2266 66.7266 54.1953 66.9219 54.1641 67.1641C54.1406 67.4062 54.125 67.6172 54.1172 67.7969C54.1094 67.9688 54.0977 68.1992 54.082 68.4883C54.0742 68.7695 54.0625 69 54.0469 69.1797C54.0469 69.5391 54.0664 69.8828 54.1055 70.2109C54.1445 70.5312 54.2149 70.8672 54.3164 71.2188C54.4258 71.5703 54.5938 71.8555 54.8203 72.0742C55.0469 72.293 55.3203 72.418 55.6406 72.4492C56.125 72.4492 56.5235 72.1133 56.836 71.4414C57.1563 70.7695 57.3164 70.0898 57.3164 69.4023C57.3164 66.6055 56.7266 65.1914 55.5469 65.1602Z" stroke="#292929"/>
<path d="M60.125 69.0977C60.1328 67.4102 60.3515 66.1953 60.7812 65.4531C61.2109 64.7031 61.8633 64.3047 62.7383 64.2578C63.1211 64.2578 63.4609 64.3633 63.7578 64.5742C64.0547 64.7852 64.289 65.0547 64.4609 65.3828C64.6406 65.7031 64.789 66.0898 64.9062 66.543C65.0234 66.9883 65.1015 67.4141 65.1406 67.8203C65.1875 68.2188 65.2187 68.6445 65.2344 69.0977C65.2344 69.7148 65.1406 70.3477 64.9531 70.9961C64.7734 71.6367 64.4922 72.1992 64.1094 72.6836C63.7344 73.1602 63.3125 73.3984 62.8437 73.3984C61.0312 73.3984 60.125 71.9648 60.125 69.0977ZM62.5742 65.1602C62.3867 65.1992 62.2187 65.2617 62.0703 65.3477C61.9219 65.4336 61.7969 65.5312 61.6953 65.6406C61.6015 65.75 61.5195 65.8945 61.4492 66.0742C61.3789 66.2539 61.3242 66.4219 61.2851 66.5781C61.2539 66.7266 61.2226 66.9219 61.1914 67.1641C61.168 67.4062 61.1523 67.6172 61.1445 67.7969C61.1367 67.9688 61.125 68.1992 61.1094 68.4883C61.1015 68.7695 61.0898 69 61.0742 69.1797C61.0742 69.5391 61.0937 69.8828 61.1328 70.2109C61.1719 70.5312 61.2422 70.8672 61.3437 71.2188C61.4531 71.5703 61.6211 71.8555 61.8476 72.0742C62.0742 72.293 62.3476 72.418 62.668 72.4492C63.1523 72.4492 63.5508 72.1133 63.8633 71.4414C64.1836 70.7695 64.3437 70.0898 64.3437 69.4023C64.3437 66.6055 63.7539 65.1914 62.5742 65.1602Z" stroke="#292929"/>
<path d="M73.0625 63.9414L73.6836 64.3633C73.5274 64.7148 72.6797 66.1211 71.1407 68.582C69.6094 71.0352 68.7461 72.5 68.5508 72.9766C68.4414 73.1094 68.3047 73.1758 68.1407 73.1758C67.9844 73.1758 67.8477 73.1172 67.7305 73C67.6211 72.875 67.5664 72.7305 67.5664 72.5664C67.5664 72.4805 67.5899 72.3906 67.6368 72.2969C68.0118 71.8281 68.8789 70.5547 70.2383 68.4766C71.6055 66.3984 72.5469 64.8867 73.0625 63.9414ZM70.8125 71.418C70.8125 70.918 71.0118 70.457 71.4102 70.0352C71.8086 69.6055 72.2618 69.3906 72.7696 69.3906C73.2305 69.3906 73.6485 69.5859 74.0235 69.9766C74.3985 70.3594 74.586 70.793 74.586 71.2773C74.586 71.8086 74.4141 72.2773 74.0704 72.6836C73.7266 73.0898 73.293 73.293 72.7696 73.293C72.2618 73.293 71.8086 73.1172 71.4102 72.7656C71.0118 72.4062 70.8125 71.957 70.8125 71.418ZM72.7579 70.1523C72.4532 70.1523 72.1719 70.2773 71.9141 70.5273C71.6641 70.7773 71.5391 71.0586 71.5391 71.3711C71.5391 71.6836 71.6602 71.9492 71.9024 72.168C72.1446 72.3867 72.4297 72.4961 72.7579 72.4961C73.0704 72.4961 73.336 72.3789 73.5547 72.1445C73.7813 71.9102 73.8946 71.625 73.8946 71.2891C73.8946 71 73.7774 70.7383 73.543 70.5039C73.3164 70.2695 73.0547 70.1523 72.7579 70.1523ZM66.6758 65.6875C66.6758 65.1875 66.875 64.7266 67.2735 64.3047C67.6719 63.875 68.125 63.6602 68.6329 63.6602C69.0938 63.6602 69.5118 63.8555 69.8868 64.2461C70.2618 64.6289 70.4493 65.0625 70.4493 65.5469C70.4493 66.0781 70.2774 66.5469 69.9336 66.9531C69.5899 67.3594 69.1563 67.5625 68.6329 67.5625C68.125 67.5625 67.6719 67.3867 67.2735 67.0352C66.875 66.6758 66.6758 66.2266 66.6758 65.6875ZM68.6211 64.4336C68.3164 64.4336 68.0352 64.5586 67.7774 64.8086C67.5196 65.0508 67.3907 65.3281 67.3907 65.6406C67.3907 65.9531 67.5118 66.2227 67.7539 66.4492C68.0039 66.668 68.293 66.7773 68.6211 66.7773C68.9336 66.7773 69.1993 66.6602 69.418 66.4258C69.6446 66.1836 69.7579 65.8945 69.7579 65.5586C69.7579 65.2773 69.6407 65.0195 69.4063 64.7852C69.1797 64.5508 68.918 64.4336 68.6211 64.4336Z" stroke="#292929"/>
</g>
</g>
</g>
</g>
<defs>
<clipPath id="clip0_5355_151021">
<rect width="117" height="137" fill="white"/>
</clipPath>
<clipPath id="clip1_5355_151021">
<rect width="117" height="137" fill="white"/>
</clipPath>
<clipPath id="clip2_5355_151021">
<rect width="117" height="137" fill="white"/>
</clipPath>
<clipPath id="clip3_5355_151021">
<rect width="117" height="137" fill="white"/>
</clipPath>
</defs>
</svg>
