<svg width="25" height="32" viewBox="0 0 25 32" fill="none" xmlns="http://www.w3.org/2000/svg">
<g clip-path="url(#clip0_5355_150583)">
<path d="M21.8448 11.4655C19.7248 7.25219 18.9782 13.2522 16.5648 15.0655C15.6582 12.5189 16.9915 9.43885 16.1648 6.81219C15.4048 4.34552 13.5115 2.51885 11.1648 1.58552C10.7915 1.42552 10.2582 1.78552 10.3382 2.23885C10.6448 5.21219 8.73817 7.54552 7.64484 10.1189C6.93817 11.7989 6.60484 13.4389 6.63151 15.2122C4.15151 12.9189 5.52484 11.1055 4.33817 10.6922C2.35151 10.1322 1.71151 15.3055 1.60484 16.5055C0.818173 21.8389 2.37817 27.9455 7.89817 30.0122H8.04484C9.44484 30.7855 11.1382 30.9055 12.8582 30.7189C17.1782 30.3055 20.1248 27.7722 21.6182 24.2389C23.1115 20.4789 23.6715 15.1455 21.8448 11.4655Z" fill="#F38059"/>
<path d="M20.0576 18.0406C19.991 17.4406 19.4443 16.2406 18.831 16.3073C18.5376 16.374 18.151 16.814 17.9243 17.0273C17.0843 17.9073 16.5376 19.0006 15.7243 19.2806C14.8576 18.2273 14.151 16.494 13.8843 15.0006C13.6176 13.814 13.4176 12.694 12.8576 11.5606C12.7243 11.2673 12.271 11.1073 11.9643 11.3206C9.92431 12.8406 9.05764 15.0406 9.15098 17.574C9.12431 18.3073 9.60431 20.9206 9.60431 20.9206C8.71098 20.7606 8.49764 20.5206 7.84431 19.9206C7.32431 19.534 6.69764 18.254 5.93764 18.534C4.05764 19.3073 4.99098 24.0006 5.40431 25.5073C5.95098 27.454 7.19098 28.8806 8.72431 29.9606C9.09764 30.2673 9.45764 30.494 9.81764 30.5873C9.96431 30.6673 10.111 30.7473 10.2576 30.814C10.4043 30.894 10.551 30.894 10.6976 30.8273C13.7243 31.1873 16.9243 28.214 18.2443 25.4273C19.191 23.5073 20.3643 20.7206 20.0576 18.0406Z" fill="#FEDB72"/>
<path d="M6.83271 16.0253C6.19271 14.4386 6.48605 12.6119 7.13938 11.0253C7.79271 9.43859 8.77938 8.01193 9.55271 6.49193C10.326 4.97193 10.9127 3.25193 10.6594 1.55859M9.84605 30.5986C12.8994 31.0653 16.1394 30.1453 18.4994 28.1453C19.6758 27.1349 20.6241 25.8862 21.2815 24.4817C21.9389 23.0772 22.2904 21.5491 22.3127 19.9986M2.36605 13.3186C0.792714 17.1853 0.912714 21.7186 2.68605 25.5053M12.526 2.26526C14.6194 3.85193 15.5794 5.19859 15.846 6.45193C16.1527 7.85193 15.9394 9.29193 15.8327 10.7186C15.726 12.1453 15.766 13.6519 16.5127 14.8786M21.0727 10.6519C22.0328 12.3177 22.6324 14.1665 22.8327 16.0786" stroke="black" stroke-width="1.33333" stroke-miterlimit="10" stroke-linecap="round" stroke-linejoin="round"/>
</g>
<defs>
<clipPath id="clip0_5355_150583">
<rect width="24" height="32" fill="white" transform="translate(0.5)"/>
</clipPath>
</defs>
</svg>
