<svg width="29" height="90" viewBox="0 0 29 90" fill="none" xmlns="http://www.w3.org/2000/svg">
<g clip-path="url(#clip0_5355_150805)">
<g clip-path="url(#clip1_5355_150805)">
<g clip-path="url(#clip2_5355_150805)">
<g clip-path="url(#clip3_5355_150805)">
<path d="M23.6187 78.5713C23.7682 77.3266 24.4516 76.2471 24.778 75.0786C25.0953 73.907 25.1198 72.6655 25.1045 71.4114C25.0679 70.1508 24.9916 68.8871 24.6041 67.49C24.4882 67.4456 24.3723 67.4011 24.2594 67.3567C23.3228 68.2488 22.7675 69.3031 22.3282 70.4239C21.9133 71.5479 21.6112 72.7386 21.6874 74.0689C21.7729 75.4089 22.2946 76.8789 22.3708 78.1998C22.3831 78.3745 22.3464 78.5332 22.3464 78.7014C19.9363 75.3866 17.8769 71.8718 16.1714 68.2108C16.2172 67.471 16.3271 66.7724 16.5802 66.1533C16.9952 65.0738 17.8769 64.2673 18.4383 63.2957C18.9874 62.3145 19.262 61.2001 19.5 60.0539C19.7136 58.8981 19.8843 57.7265 19.7775 56.3484C19.6739 56.2786 19.5732 56.212 19.4694 56.1421C18.3986 56.7326 17.6633 57.5613 17.0165 58.4726C16.3972 59.3998 15.8664 60.3999 15.6681 61.6255C15.4789 62.8575 15.6711 64.3117 15.4605 65.5151C15.4239 65.75 15.3233 65.9501 15.2683 66.1723C13.7185 62.5146 12.5134 58.7298 11.656 54.8689C11.8513 54.0369 12.1137 53.2559 12.5561 52.643C13.1601 51.7667 14.1609 51.2523 14.8779 50.503C15.5887 49.7441 16.0555 48.7821 16.4887 47.7819C16.9006 46.7627 17.2759 45.7149 17.4101 44.3972C17.3247 44.3083 17.2392 44.2162 17.1508 44.1241C16.028 44.4035 15.1768 44.9878 14.3988 45.6736C13.6422 46.3721 12.9527 47.1723 12.5378 48.2455C12.129 49.3313 12.0374 50.7189 11.6042 51.7667C11.4944 52.0461 11.3265 52.2683 11.1801 52.5193C10.4753 48.7059 10.1092 44.8195 10.0879 40.9267C10.4662 40.0091 10.9147 39.1709 11.5615 38.6216C12.2937 37.9612 13.3249 37.7547 14.1334 37.2372C14.9388 36.7165 15.546 35.9259 16.1256 35.0908C16.6931 34.2335 17.2209 33.3318 17.5748 32.103C17.5107 31.995 17.4436 31.8839 17.3795 31.7759C16.2782 31.7506 15.3813 32.0935 14.53 32.538C13.6941 33.0079 12.91 33.5794 12.3273 34.4843C11.7506 35.4051 11.415 36.6816 10.8171 37.5452C10.6157 37.85 10.3655 38.0723 10.1184 38.3136C10.2435 34.513 10.695 30.7154 11.4761 26.9687C11.5127 26.9116 11.5493 26.8545 11.5829 26.7941C12.1655 25.8733 12.8124 25.0637 13.6178 24.6541C14.411 24.2191 15.4057 24.3017 16.2477 24.0159C17.0867 23.7238 17.7884 23.1237 18.4779 22.4665C19.1552 21.7806 19.8081 21.0376 20.3603 19.9263C20.3267 19.8088 20.2841 19.685 20.2474 19.5612C19.2345 19.2532 18.3467 19.3643 17.4833 19.5739C16.629 19.8152 15.7992 20.1676 15.0944 20.8852C14.3928 21.6219 13.8466 22.7649 13.1387 23.4285C12.8306 23.7333 12.489 23.9397 12.1411 24.127C13.09 20.4058 14.3683 16.748 15.9823 13.2045C16.0127 13.2458 16.0463 13.2871 16.0768 13.3316C16.2141 13.1855 16.3545 13.0394 16.4918 12.8933C17.2057 12.1504 17.9532 11.5312 18.7678 11.347C19.5701 11.1312 20.461 11.4614 21.2787 11.401C22.0993 11.328 22.859 10.9184 23.6156 10.4326C24.3723 9.92145 25.1167 9.34354 25.8489 8.37195C25.8397 8.24176 25.8276 8.1084 25.8184 7.97506C24.9672 7.42893 24.1404 7.32097 23.3105 7.3178C22.4868 7.3432 21.66 7.4829 20.8698 8.01632C20.0826 8.56563 19.3535 9.54358 18.5725 10.0134C18.1911 10.258 17.7914 10.4041 17.3887 10.493C17.4009 10.4104 17.404 10.331 17.4192 10.2516L17.6328 8.69581C17.6389 8.55293 17.6938 8.40053 17.6938 8.26717C17.7579 7.29557 17.8006 6.3335 17.7152 5.41905C17.4375 3.63463 16.9708 1.90735 15.6955 0.453125C15.5582 0.507102 15.4239 0.557905 15.2866 0.611882C13.9351 3.08215 13.5843 5.24443 13.575 7.21619C13.63 8.17826 13.8466 9.06096 14.1242 9.90558C14.3531 10.7755 14.7711 11.5471 15.2836 12.2615C15.3568 12.3631 15.4301 12.4647 15.5033 12.5664C13.9717 15.6081 12.6812 18.7547 11.6377 21.9774C11.6316 21.9457 11.6347 21.9076 11.6256 21.8758C11.4455 20.8567 11.2411 19.8469 10.933 18.9166C10.213 17.1163 9.3404 15.4049 7.75088 14.1317C7.62885 14.211 7.5068 14.2936 7.38782 14.373C6.65865 17.2116 6.83561 19.5326 7.3207 21.5805C7.61053 22.5712 8.04376 23.4444 8.53497 24.2636C8.98039 25.124 9.58753 25.8352 10.2801 26.4735C10.3014 26.4925 10.3198 26.5083 10.3381 26.5275C9.54786 29.7216 8.98955 32.973 8.66921 36.2497C8.24513 35.2877 7.818 34.332 7.30239 33.4715C6.13999 31.7569 4.8525 30.1472 2.96399 29.1184C2.86331 29.2231 2.76263 29.3311 2.66195 29.4359C2.61618 32.5094 3.36061 34.8717 4.35216 36.8879C4.88912 37.8532 5.54201 38.666 6.24067 39.4122C6.85086 40.1425 7.58918 40.6981 8.37022 41.1871C8.28784 44.4225 8.43733 47.6676 8.81564 50.8935C8.18715 50.0584 7.55867 49.2171 6.86916 48.4868C5.26743 46.9595 3.57722 45.5562 1.42023 44.8386C1.34395 44.9655 1.26768 45.0925 1.19141 45.2195C1.88396 48.3788 3.21112 50.6554 4.71826 52.5193C5.50235 53.3987 6.37187 54.1036 7.26884 54.7228C7.98885 55.2784 8.79124 55.6372 9.60584 55.9643C10.2191 59.114 11.055 62.232 12.1198 65.2896C11.3082 64.6165 10.5089 63.9275 9.6699 63.3592C7.64715 62.124 5.57252 61.0223 3.1928 60.6921C3.14399 60.8349 3.09518 60.9778 3.04941 61.1207C4.51995 64.2037 6.44204 66.258 8.45869 67.8424C9.4838 68.5791 10.5547 69.1125 11.6408 69.5603C12.4279 69.9317 13.2517 70.0937 14.0754 70.2556C15.369 73.1958 16.8884 76.063 18.6274 78.8285C17.6663 78.349 16.7084 77.8474 15.7504 77.4663C13.3372 76.6409 10.9147 75.9328 8.36411 76.0471C8.34886 76.1995 8.3336 76.3551 8.31835 76.5074C10.5974 79.3429 13.1083 81.0257 15.6131 82.2069C16.87 82.737 18.127 83.0546 19.3749 83.2705C20.1956 83.4546 21.001 83.4293 21.8065 83.4356C23.1549 85.2232 24.6102 86.96 26.1662 88.6334C26.9869 87.7792 27.8046 86.9251 28.6253 86.0742C26.8405 84.2771 25.1807 82.3942 23.6492 80.4319C23.5576 79.7874 23.5332 79.1651 23.6187 78.5713Z" fill="#00857A"/>
</g>
</g>
</g>
</g>
<defs>
<clipPath id="clip0_5355_150805">
<rect width="28" height="89.16" fill="white" transform="translate(0.910156)"/>
</clipPath>
<clipPath id="clip1_5355_150805">
<rect width="28" height="89.16" fill="white" transform="translate(0.910156)"/>
</clipPath>
<clipPath id="clip2_5355_150805">
<rect width="28" height="89.16" fill="white" transform="translate(0.910156)"/>
</clipPath>
<clipPath id="clip3_5355_150805">
<rect width="27.4338" height="89.16" fill="white" transform="translate(1.19141)"/>
</clipPath>
</defs>
</svg>
