<svg width="28" height="90" viewBox="0 0 28 90" fill="none" xmlns="http://www.w3.org/2000/svg">
<g clip-path="url(#clip0_5355_150816)">
<g clip-path="url(#clip1_5355_150816)">
<g clip-path="url(#clip2_5355_150816)">
<g clip-path="url(#clip3_5355_150816)">
<path d="M5.29148 78.5713C5.14197 77.3266 4.45857 76.2471 4.13211 75.0786C3.81486 73.907 3.79036 72.6655 3.80564 71.4114C3.84229 70.1508 3.91852 68.8871 4.30602 67.49C4.42193 67.4456 4.53784 67.4011 4.6508 67.3567C5.58738 68.2488 6.14262 69.3031 6.58195 70.4239C6.99689 71.5479 7.29895 72.7386 7.22273 74.0689C7.13729 75.4089 6.61556 76.8789 6.53933 78.1998C6.52708 78.3745 6.56373 78.5332 6.56373 78.7014C8.97389 75.3866 11.0333 71.8718 12.7388 68.2108C12.6929 67.471 12.5831 66.7724 12.3299 66.1533C11.915 65.0738 11.0333 64.2673 10.4719 63.2957C9.92271 62.3145 9.64817 61.2001 9.41019 60.0539C9.19659 58.8981 9.02582 57.7265 9.13261 56.3484C9.23627 56.2786 9.337 56.212 9.44076 56.1421C10.5116 56.7326 11.2469 57.5613 11.8936 58.4726C12.513 59.3998 13.0438 60.3999 13.2421 61.6255C13.4313 62.8575 13.2391 64.3117 13.4496 65.5151C13.4863 65.75 13.5869 65.9501 13.6419 66.1723C15.1917 62.5146 16.3968 58.7298 17.2541 54.8689C17.0588 54.0369 16.7965 53.2559 16.3541 52.643C15.75 51.7667 14.7493 51.2523 14.0323 50.503C13.3215 49.7441 12.8547 48.7821 12.4214 47.7819C12.0095 46.7627 11.6343 45.7149 11.5001 44.3972C11.5855 44.3083 11.6709 44.2162 11.7594 44.1241C12.8821 44.4035 13.7334 44.9878 14.5113 45.6736C15.268 46.3721 15.9575 47.1723 16.3724 48.2455C16.7812 49.3313 16.8728 50.7189 17.3059 51.7667C17.4158 52.0461 17.5836 52.2683 17.7301 52.5193C18.4348 48.7059 18.8009 44.8195 18.8223 40.9267C18.444 40.0091 17.9955 39.1709 17.3487 38.6216C16.6165 37.9612 15.5852 37.7547 14.7767 37.2372C13.9714 36.7165 13.3642 35.9259 12.7845 35.0908C12.2171 34.2335 11.6893 33.3318 11.3354 32.103C11.3994 31.995 11.4665 31.8839 11.5306 31.7759C12.632 31.7506 13.5289 32.0935 14.3801 32.538C15.2161 33.0079 16.0002 33.5794 16.5829 34.4843C17.1596 35.4051 17.4951 36.6816 18.0931 37.5452C18.2945 37.85 18.5446 38.0723 18.7918 38.3136C18.6667 34.513 18.2151 30.7154 17.4341 26.9687C17.3975 26.9116 17.3609 26.8545 17.3273 26.7941C16.7446 25.8733 16.0978 25.0637 15.2924 24.6541C14.4992 24.2191 13.5045 24.3017 12.6625 24.0159C11.8235 23.7238 11.1218 23.1237 10.4323 22.4665C9.75497 21.7806 9.10204 21.0376 8.54984 19.9263C8.58345 19.8088 8.62607 19.685 8.66271 19.5612C9.67561 19.2532 10.5635 19.3643 11.4269 19.5739C12.2811 19.8152 13.1109 20.1676 13.8158 20.8852C14.5174 21.6219 15.0635 22.7649 15.7714 23.4285C16.0795 23.7333 16.4212 23.9397 16.769 24.127C15.8202 20.4058 14.5419 16.748 12.9279 13.2045C12.8974 13.2458 12.8638 13.2871 12.8333 13.3316C12.6961 13.1855 12.5557 13.0394 12.4184 12.8933C11.7044 12.1504 10.957 11.5312 10.1424 11.347C9.34003 11.1312 8.44912 11.4614 7.63149 11.401C6.81083 11.328 6.05111 10.9184 5.29452 10.4326C4.53784 9.92145 3.7935 9.34354 3.06121 8.37195C3.07042 8.24176 3.08257 8.1084 3.09178 7.97506C3.94291 7.42893 4.76975 7.32097 5.59962 7.3178C6.42333 7.3432 7.25016 7.4829 8.04036 8.01632C8.82751 8.56563 9.55666 9.54358 10.3376 10.0134C10.7191 10.258 11.1187 10.4041 11.5214 10.493C11.5093 10.4104 11.5061 10.331 11.4909 10.2516L11.2774 8.69581C11.2713 8.55293 11.2163 8.40053 11.2163 8.26717C11.1522 7.29557 11.1095 6.3335 11.195 5.41905C11.4726 3.63463 11.9394 1.90735 13.2147 0.453125C13.3519 0.507102 13.4863 0.557905 13.6235 0.611882C14.975 3.08215 15.3259 5.24443 15.3351 7.21619C15.2801 8.17826 15.0635 9.06096 14.7859 9.90558C14.5571 10.7755 14.1391 11.5471 13.6266 12.2615C13.5534 12.3631 13.4801 12.4647 13.4069 12.5664C14.9385 15.6081 16.229 18.7547 17.2724 21.9774C17.2785 21.9457 17.2755 21.9076 17.2846 21.8758C17.4647 20.8567 17.669 19.8469 17.9772 18.9166C18.6972 17.1163 19.5698 15.4049 21.1593 14.1317C21.2813 14.211 21.4034 14.2936 21.5223 14.373C22.2515 17.2116 22.0745 19.5326 21.5895 21.5805C21.2996 22.5712 20.8664 23.4444 20.3752 24.2636C19.9298 25.124 19.3226 25.8352 18.6301 26.4735C18.6087 26.4925 18.5904 26.5083 18.5721 26.5275C19.3623 29.7216 19.9206 32.973 20.2409 36.2497C20.665 35.2877 21.0922 34.332 21.6078 33.4715C22.7702 31.7569 24.0577 30.1472 25.9462 29.1184C26.0468 29.2231 26.1475 29.3311 26.2482 29.4359C26.294 32.5094 25.5495 34.8717 24.558 36.8879C24.021 37.8532 23.3681 38.666 22.6695 39.4122C22.0593 40.1425 21.321 40.6981 20.5399 41.1871C20.6223 44.4225 20.4728 47.6676 20.0945 50.8935C20.723 50.0584 21.3515 49.2171 22.041 48.4868C23.6427 46.9595 25.3329 45.5562 27.4899 44.8386C27.5662 44.9655 27.6425 45.0925 27.7188 45.2195C27.0262 48.3788 25.699 50.6554 24.1919 52.5193C23.4078 53.3987 22.5383 54.1036 21.6413 54.7228C20.9213 55.2784 20.1189 55.6372 19.3043 55.9643C18.6911 59.114 17.8551 62.232 16.7904 65.2896C17.6019 64.6165 18.4012 63.9275 19.2403 63.3592C21.263 62.124 23.3376 61.0223 25.7174 60.6921C25.7662 60.8349 25.815 60.9778 25.8607 61.1207C24.3902 64.2037 22.4681 66.258 20.4515 67.8424C19.4264 68.5791 18.3555 69.1125 17.2694 69.5603C16.4822 69.9317 15.6584 70.0937 14.8347 70.2556C13.5411 73.1958 12.0218 76.063 10.2828 78.8285C11.2438 78.349 12.2018 77.8474 13.1598 77.4663C15.573 76.6409 17.9955 75.9328 20.546 76.0471C20.5613 76.1995 20.5766 76.3551 20.5918 76.5074C18.3128 79.3429 15.8019 81.0257 13.2971 82.2069C12.0401 82.737 10.7832 83.0546 9.5353 83.2705C8.71454 83.4546 7.90916 83.4293 7.10368 83.4356C5.75521 85.2232 4.29995 86.96 2.74396 88.6334C1.92329 87.7792 1.10557 86.9251 0.284904 86.0742C2.06967 84.2771 3.72942 82.3942 5.26091 80.4319C5.35252 79.7874 5.37692 79.1651 5.29148 78.5713Z" fill="#00857A"/>
</g>
</g>
</g>
</g>
<defs>
<clipPath id="clip0_5355_150816">
<rect width="28" height="89.16" fill="white" transform="matrix(-1 0 0 1 28 0)"/>
</clipPath>
<clipPath id="clip1_5355_150816">
<rect width="28" height="89.15" fill="white" transform="matrix(-1 0 0 1 28 0)"/>
</clipPath>
<clipPath id="clip2_5355_150816">
<rect width="28" height="89.15" fill="white" transform="matrix(-1 0 0 1 28 0)"/>
</clipPath>
<clipPath id="clip3_5355_150816">
<rect width="27.4338" height="89.16" fill="white" transform="matrix(-1 0 0 1 27.7188 0)"/>
</clipPath>
</defs>
</svg>
